<svg width="164" height="56" viewBox="0 0 164 56" fill="none" xmlns="http://www.w3.org/2000/svg">
<path fill-rule="evenodd" clip-rule="evenodd" d="M6.05111 36.3834L10.892 35.5765C12.1022 35.3748 12.3039 34.7697 12.3039 34.1646C12.3039 32.7527 11.2954 31.5425 8.87496 31.5425C6.45452 31.5425 5.2443 32.9544 5.04259 34.7697L0.201704 33.7612C0.605111 30.5339 3.42896 27.105 8.87496 27.105C15.1278 27.105 17.5482 30.7356 17.5482 34.7697V44.6532C17.5482 45.1856 17.6044 45.8303 17.6575 46.4392C17.705 46.9837 17.7499 47.4995 17.7499 47.8805H12.909C12.7073 47.2753 12.7073 46.2668 12.7073 45.46C11.6988 47.0736 9.68178 48.4856 6.85793 48.4856C2.62215 48.4856 0 45.6617 0 42.4345C0 38.8038 2.62215 36.7868 6.05111 36.3834ZM12.5056 39.8123V39.0055L8.06815 39.6106C6.65622 39.8123 5.6477 40.6191 5.6477 42.2328C5.6477 43.443 6.45452 44.6532 8.26985 44.6532C10.2869 44.4515 12.5056 43.2413 12.5056 39.8123Z" fill="#141414"/>
<path d="M25.6165 37.7953L18.5569 27.7101H25.0114C25.4466 28.4354 26.9251 30.6215 28.0213 32.2421L28.0218 32.2429L28.0231 32.2448C28.4503 32.8764 28.8192 33.4219 29.0455 33.7612L33.0795 27.7101H43.9716L47.804 40.6191L52.0398 27.7101H57.6875L62.1249 40.6191L65.7556 27.7101H71.2016L64.9488 47.8805H59.5028L54.8636 34.1646L50.2244 47.8805H44.7784L38.5735 28.4901L32.071 37.5936L39.3323 47.8805H33.0795L28.8438 41.6276C28.0369 42.6362 25.4148 46.6702 24.8097 47.8805H18.7586L25.6165 37.7953Z" fill="#141414"/>
<path fill-rule="evenodd" clip-rule="evenodd" d="M76.6477 36.3834L81.4885 35.5765C82.6988 35.3748 82.9005 34.7697 82.9005 34.1646C82.9005 32.7527 81.892 31.5425 79.4715 31.5425C77.0511 31.5425 75.8408 32.9544 75.6391 34.7697L70.7982 33.7612C71.2017 30.5339 74.0255 27.105 79.4715 27.105C85.7243 27.105 88.1448 30.7356 88.1448 34.7697V44.6532C88.1448 45.1855 88.201 45.8301 88.254 46.4388C88.3015 46.9834 88.3465 47.4995 88.3465 47.8805H83.3039C83.1022 47.2753 83.1022 46.2668 83.1022 45.46C82.0937 47.0736 80.0766 48.4856 77.2528 48.4856C73.017 48.4856 70.3949 45.6617 70.3949 42.4345C70.5965 38.8038 73.2187 36.7868 76.6477 36.3834ZM83.1022 39.8123V39.0055L78.6647 39.6106C77.2528 39.8123 76.2442 40.6191 76.2442 42.2328C76.2442 43.443 77.0511 44.6532 78.8664 44.6532C80.8834 44.4515 83.1022 43.2413 83.1022 39.8123Z" fill="#141414"/>
<path d="M96.4146 45.2583L91.7754 55.7469H97.4231L110.13 27.7101H104.281L99.4402 39.6106L93.9942 27.7101H87.943L96.4146 45.2583Z" fill="#141414"/>
<path d="M163.4 20.3721V13.5141L153.113 8.47155V18.7584L113.781 0V6.85793L158.761 28.2385V18.1533L163.4 20.3721Z" fill="#D22630"/>
<path d="M123.846 25.2896V32.1475L131.107 35.5765L119.408 47.8804H127.073L140.789 33.3578L123.846 25.2896Z" fill="#D22630"/>
<path d="M119.207 12.784L158.741 31.7441L150.673 34.7697L119.207 19.6419V12.784Z" fill="#D22630"/>
</svg>
