<svg width="125" height="50" viewBox="0 0 125 50" fill="none" xmlns="http://www.w3.org/2000/svg">
<path d="M19.8782 14.5227C22.1996 14.5227 24.0815 16.4046 24.0815 18.726V35.4784H7.32876C5.00735 35.4784 3.12549 33.5966 3.12549 31.2752V26.5843C3.12549 24.2629 5.00735 22.381 7.32876 22.381H11.8572V29.0387C11.8572 29.7019 12.3949 30.2397 13.0581 30.2397H15.3498V20.9624C15.3498 20.2992 14.8121 19.7618 14.1489 19.7615H3.42572V14.5227H19.8782ZM39.7979 30.2397L39.7982 5.79102H48.5299V35.4784H31.7774C29.456 35.4784 27.5741 33.5966 27.5741 31.2752V18.726C27.5741 16.4046 29.456 14.5227 31.7774 14.5227H36.3052V29.0387C36.3052 29.7019 36.843 30.2397 37.5062 30.2397H39.7979ZM64.2465 30.2397V14.5227H72.9785V40.0057C72.9785 42.3271 71.0966 44.2089 68.7752 44.2089H52.3227V38.098H64.2468V35.4784H56.2257C53.9043 35.4784 52.0225 33.5966 52.0225 31.2752V14.5227H60.7539V29.0387C60.7539 29.7019 61.2916 30.2397 61.9548 30.2397H64.2465ZM93.2236 14.5227C95.545 14.5227 97.4268 16.4046 97.4268 18.726V23.4168C97.4268 25.7383 95.545 27.6201 93.2236 27.6201H88.6951V20.9627C88.6951 20.2995 88.1577 19.7618 87.4942 19.7618H85.2025V29.0387C85.2025 29.7019 85.7402 30.2397 86.4035 30.2397H97.1266V35.4784H80.6744C78.353 35.4784 76.4711 33.5966 76.4711 31.2752V14.5227H93.2236ZM117.672 14.5227C119.994 14.5227 121.875 16.4046 121.875 18.726V35.4784H113.144V20.9624C113.144 20.3019 112.603 19.7615 111.943 19.7615H109.651V35.4784H100.919V14.5227H117.672Z" fill="#32AA52"/>
</svg>
